<svg width="124" height="62" viewBox="0 0 124 62" fill="none" xmlns="http://www.w3.org/2000/svg">
<path d="M1.536 20V3.2H6.768C7.856 3.2 8.816 3.416 9.648 3.848C10.496 4.28 11.16 4.888 11.64 5.672C12.12 6.44 12.36 7.352 12.36 8.408C12.36 9.464 12.12 10.416 11.64 11.264C11.176 12.096 10.528 12.76 9.696 13.256C8.864 13.736 7.912 13.976 6.84 13.976H5.088V20H1.536ZM6.6 10.664C7.272 10.664 7.8 10.464 8.184 10.064C8.584 9.648 8.784 9.144 8.784 8.552C8.784 7.96 8.584 7.48 8.184 7.112C7.8 6.728 7.272 6.536 6.6 6.536H5.088V10.664H6.6ZM22.3489 20.336C21.1169 20.336 19.9649 20.112 18.8929 19.664C17.8369 19.216 16.9089 18.6 16.1089 17.816C15.3249 17.016 14.7089 16.088 14.2609 15.032C13.8129 13.976 13.5889 12.84 13.5889 11.624C13.5889 10.392 13.8129 9.248 14.2609 8.192C14.7089 7.12 15.3249 6.192 16.1089 5.408C16.9089 4.608 17.8369 3.984 18.8929 3.536C19.9649 3.088 21.1169 2.864 22.3489 2.864C23.5809 2.864 24.7249 3.088 25.7809 3.536C26.8369 3.984 27.7569 4.608 28.5409 5.408C29.3409 6.192 29.9649 7.12 30.4129 8.192C30.8609 9.248 31.0849 10.392 31.0849 11.624C31.0849 12.84 30.8609 13.976 30.4129 15.032C29.9649 16.088 29.3409 17.016 28.5409 17.816C27.7569 18.6 26.8369 19.216 25.7809 19.664C24.7249 20.112 23.5809 20.336 22.3489 20.336ZM22.3489 16.952C23.2929 16.952 24.1489 16.72 24.9169 16.256C25.6849 15.776 26.2929 15.136 26.7409 14.336C27.1889 13.52 27.4129 12.616 27.4129 11.624C27.4129 10.616 27.1889 9.704 26.7409 8.888C26.2929 8.072 25.6849 7.432 24.9169 6.968C24.1489 6.488 23.2929 6.248 22.3489 6.248C21.4049 6.248 20.5409 6.488 19.7569 6.968C18.9889 7.432 18.3809 8.072 17.9329 8.888C17.4849 9.704 17.2609 10.616 17.2609 11.624C17.2609 12.616 17.4849 13.52 17.9329 14.336C18.3809 15.136 18.9889 15.776 19.7569 16.256C20.5409 16.72 21.4049 16.952 22.3489 16.952ZM33.411 20V3.2H38.691C39.811 3.2 40.787 3.424 41.619 3.872C42.451 4.304 43.099 4.888 43.563 5.624C44.043 6.344 44.283 7.144 44.283 8.024C44.283 8.872 44.099 9.632 43.731 10.304C43.363 10.976 42.859 11.536 42.219 11.984C42.891 12.4 43.395 12.952 43.731 13.64C44.083 14.328 44.259 15.104 44.259 15.968V20H40.707V16.4C40.707 15.456 40.491 14.792 40.059 14.408C39.627 14.024 38.939 13.832 37.995 13.832H36.939V20H33.411ZM38.475 10.664C39.147 10.664 39.683 10.48 40.083 10.112C40.499 9.728 40.707 9.224 40.707 8.6C40.707 7.976 40.499 7.48 40.083 7.112C39.683 6.728 39.147 6.536 38.475 6.536H36.939V10.664H38.475ZM45.432 6.56V3.2H56.352V6.56H52.68V20H49.104V6.56H45.432ZM58.3251 3.2H67.3251V6.56H61.8771V9.776H66.6051V13.16H61.8771V20H58.3251V3.2ZM77.2395 20.336C76.0075 20.336 74.8555 20.112 73.7835 19.664C72.7275 19.216 71.7995 18.6 70.9995 17.816C70.2155 17.016 69.5995 16.088 69.1515 15.032C68.7035 13.976 68.4795 12.84 68.4795 11.624C68.4795 10.392 68.7035 9.248 69.1515 8.192C69.5995 7.12 70.2155 6.192 70.9995 5.408C71.7995 4.608 72.7275 3.984 73.7835 3.536C74.8555 3.088 76.0075 2.864 77.2395 2.864C78.4715 2.864 79.6155 3.088 80.6715 3.536C81.7275 3.984 82.6475 4.608 83.4315 5.408C84.2315 6.192 84.8555 7.12 85.3035 8.192C85.7515 9.248 85.9755 10.392 85.9755 11.624C85.9755 12.84 85.7515 13.976 85.3035 15.032C84.8555 16.088 84.2315 17.016 83.4315 17.816C82.6475 18.6 81.7275 19.216 80.6715 19.664C79.6155 20.112 78.4715 20.336 77.2395 20.336ZM77.2395 16.952C78.1835 16.952 79.0395 16.72 79.8075 16.256C80.5755 15.776 81.1835 15.136 81.6315 14.336C82.0795 13.52 82.3035 12.616 82.3035 11.624C82.3035 10.616 82.0795 9.704 81.6315 8.888C81.1835 8.072 80.5755 7.432 79.8075 6.968C79.0395 6.488 78.1835 6.248 77.2395 6.248C76.2955 6.248 75.4315 6.488 74.6475 6.968C73.8795 7.432 73.2715 8.072 72.8235 8.888C72.3755 9.704 72.1515 10.616 72.1515 11.624C72.1515 12.616 72.3755 13.52 72.8235 14.336C73.2715 15.136 73.8795 15.776 74.6475 16.256C75.4315 16.72 76.2955 16.952 77.2395 16.952ZM88.3016 3.2H91.8536V16.616H97.3256V20H88.3016V3.2ZM99.2938 3.2H102.846V20H99.2938V3.2ZM113.943 20.336C112.711 20.336 111.559 20.112 110.487 19.664C109.431 19.216 108.503 18.6 107.703 17.816C106.919 17.016 106.303 16.088 105.855 15.032C105.407 13.976 105.183 12.84 105.183 11.624C105.183 10.392 105.407 9.248 105.855 8.192C106.303 7.12 106.919 6.192 107.703 5.408C108.503 4.608 109.431 3.984 110.487 3.536C111.559 3.088 112.711 2.864 113.943 2.864C115.175 2.864 116.319 3.088 117.375 3.536C118.431 3.984 119.351 4.608 120.135 5.408C120.935 6.192 121.559 7.12 122.007 8.192C122.455 9.248 122.679 10.392 122.679 11.624C122.679 12.84 122.455 13.976 122.007 15.032C121.559 16.088 120.935 17.016 120.135 17.816C119.351 18.6 118.431 19.216 117.375 19.664C116.319 20.112 115.175 20.336 113.943 20.336ZM113.943 16.952C114.887 16.952 115.743 16.72 116.511 16.256C117.279 15.776 117.887 15.136 118.335 14.336C118.783 13.52 119.007 12.616 119.007 11.624C119.007 10.616 118.783 9.704 118.335 8.888C117.887 8.072 117.279 7.432 116.511 6.968C115.743 6.488 114.887 6.248 113.943 6.248C112.999 6.248 112.135 6.488 111.351 6.968C110.583 7.432 109.975 8.072 109.527 8.888C109.079 9.704 108.855 10.616 108.855 11.624C108.855 12.616 109.079 13.52 109.527 14.336C109.975 15.136 110.583 15.776 111.351 16.256C112.135 16.72 112.999 16.952 113.943 16.952Z" fill="#FF4400"/>
<path d="M33.536 22.2H37.088V35.616H42.56V39H33.536V22.2ZM44.5282 22.2H53.5282V25.56H48.0802V28.728H52.8322V31.968H48.0802V35.616H53.5282V39H44.5282V22.2ZM63.8176 39.336C62.5856 39.336 61.4336 39.112 60.3616 38.664C59.3056 38.216 58.3776 37.6 57.5776 36.816C56.7936 36.016 56.1776 35.088 55.7296 34.032C55.2816 32.976 55.0576 31.84 55.0576 30.624C55.0576 29.392 55.2816 28.248 55.7296 27.192C56.1776 26.12 56.7936 25.192 57.5776 24.408C58.3776 23.608 59.3056 22.984 60.3616 22.536C61.4336 22.088 62.5856 21.864 63.8176 21.864C65.0496 21.864 66.1936 22.088 67.2496 22.536C68.3056 22.984 69.2256 23.608 70.0096 24.408C70.8096 25.192 71.4336 26.12 71.8816 27.192C72.3296 28.248 72.5536 29.392 72.5536 30.624C72.5536 31.84 72.3296 32.976 71.8816 34.032C71.4336 35.088 70.8096 36.016 70.0096 36.816C69.2256 37.6 68.3056 38.216 67.2496 38.664C66.1936 39.112 65.0496 39.336 63.8176 39.336ZM63.8176 35.952C64.7616 35.952 65.6176 35.72 66.3856 35.256C67.1536 34.776 67.7616 34.136 68.2096 33.336C68.6576 32.52 68.8816 31.616 68.8816 30.624C68.8816 29.616 68.6576 28.704 68.2096 27.888C67.7616 27.072 67.1536 26.432 66.3856 25.968C65.6176 25.488 64.7616 25.248 63.8176 25.248C62.8736 25.248 62.0096 25.488 61.2256 25.968C60.4576 26.432 59.8496 27.072 59.4016 27.888C58.9536 28.704 58.7296 29.616 58.7296 30.624C58.7296 31.616 58.9536 32.52 59.4016 33.336C59.8496 34.136 60.4576 34.776 61.2256 35.256C62.0096 35.72 62.8736 35.952 63.8176 35.952Z" fill="#FF4400"/>
<path d="M17.536 58V41.2H22.768C23.856 41.2 24.816 41.416 25.648 41.848C26.496 42.28 27.16 42.888 27.64 43.672C28.12 44.44 28.36 45.352 28.36 46.408C28.36 47.464 28.12 48.416 27.64 49.264C27.176 50.096 26.528 50.76 25.696 51.256C24.864 51.736 23.912 51.976 22.84 51.976H21.088V58H17.536ZM22.6 48.664C23.272 48.664 23.8 48.464 24.184 48.064C24.584 47.648 24.784 47.144 24.784 46.552C24.784 45.96 24.584 45.48 24.184 45.112C23.8 44.728 23.272 44.536 22.6 44.536H21.088V48.664H22.6ZM30.3329 58V41.2H33.8849V47.704H38.9249V41.2H42.5009V58H38.9249V51.088H33.8849V58H30.3329ZM45.5438 41.2H49.0958V58H45.5438V41.2ZM52.1766 41.2H55.7286V54.616H61.2006V58H52.1766V41.2ZM63.1688 41.2H66.7208V58H63.1688V41.2ZM69.8016 58V41.2H75.0336C76.1216 41.2 77.0816 41.416 77.9136 41.848C78.7616 42.28 79.4256 42.888 79.9056 43.672C80.3856 44.44 80.6256 45.352 80.6256 46.408C80.6256 47.464 80.3856 48.416 79.9056 49.264C79.4416 50.096 78.7936 50.76 77.9616 51.256C77.1296 51.736 76.1776 51.976 75.1056 51.976H73.3536V58H69.8016ZM74.8656 48.664C75.5376 48.664 76.0656 48.464 76.4496 48.064C76.8496 47.648 77.0496 47.144 77.0496 46.552C77.0496 45.96 76.8496 45.48 76.4496 45.112C76.0656 44.728 75.5376 44.536 74.8656 44.536H73.3536V48.664H74.8656ZM82.5985 58V41.2H87.8305C88.9185 41.2 89.8785 41.416 90.7105 41.848C91.5585 42.28 92.2225 42.888 92.7025 43.672C93.1825 44.44 93.4225 45.352 93.4225 46.408C93.4225 47.464 93.1825 48.416 92.7025 49.264C92.2385 50.096 91.5905 50.76 90.7585 51.256C89.9265 51.736 88.9745 51.976 87.9025 51.976H86.1505V58H82.5985ZM87.6625 48.664C88.3345 48.664 88.8625 48.464 89.2465 48.064C89.6465 47.648 89.8465 47.144 89.8465 46.552C89.8465 45.96 89.6465 45.48 89.2465 45.112C88.8625 44.728 88.3345 44.536 87.6625 44.536H86.1505V48.664H87.6625ZM95.3954 41.2H104.395V44.56H98.9474V47.728H103.699V50.968H98.9474V54.616H104.395V58H95.3954V41.2Z" fill="#FF4400"/>
</svg>
